# xmcd CD database file
# Generated: Tue Apr 29 20:16:21 2003 by KSCD
# 
# Track frame offsets:
#       150
#       5203
#       23200
#       41023
#       61745
#       87700
#       115012
#       132842
#       154720
#       174882
#       192224
#       208342
#       229532
#       242536
#       267291
#       291601
#       310103
#
# Disc length: 4349 seconds
#
# Revision: 2
# Processed by: cddbd v1.4PL0 Copyright (c) Steve Scherf et al.
# Submitted via: Kscd 1.3.3
#
DISCID=eb10fb11
DTITLE=Diverse - !vamos!
DYEAR=1900
DGENRE=
TTITLE0=chico sience and nacao zumbi "monologo ao pe do ouvido
TTITLE1=chico sience and nacao zumbi "banditismo por uma questao de classe"
TTITLE2=mano negra "senor matanza"
TTITLE3=los fabulosos cadillacs "el matador"
TTITLE4=los de abajo "son de la liberacion"
TTITLE5=mi son "mecanica de amor"
TTITLE6=eliades ochoa v cuateto patria "!que humanidad!"
TTITLE7=marc ribot y los cubaos postizos "aqui como alla"
TTITLE8=jarabe de palo "te miro y tiemblo"
TTITLE9=mercedes sosa "un son para portinari"
TTITLE10=cesaria evora "sangue de beirona"
TTITLE11=carlos santana "africa bamba"
TTITLE12=los fabulosos cadillacs "la vida"
TTITLE13=amparanoia "el destino"
TTITLE14=king mafrundi "hasta siempre"
TTITLE15=khaled and noa "imagine"
TTITLE16=rio reiser "wann?"
EXTD=en cada corazon pulpa una celula revolutionaria
EXTT0=
EXTT1=
EXTT2=
EXTT3=
EXTT4=
EXTT5=
EXTT6=
EXTT7=
EXTT8=
EXTT9=
EXTT10=
EXTT11=
EXTT12=
EXTT13=
EXTT14=
EXTT15=
EXTT16=
PLAYORDER=
